<?xml version="1.0" standalone="no"?>
<!DOCTYPE svg PUBLIC "-//W3C//DTD SVG 20010904//EN"
 "http://www.w3.org/TR/2001/REC-SVG-20010904/DTD/svg10.dtd">
<svg version="1.0" xmlns="http://www.w3.org/2000/svg"
 width="1338.000000pt" height="1338.000000pt" viewBox="0 0 1338.000000 1338.000000"
 preserveAspectRatio="xMidYMid meet">

<g transform="translate(0.000000,1338.000000) scale(0.100000,-0.100000)"
fill="#000000" stroke="none">
<path d="M12665 13354 c-1020 -188 -3012 -1544 -5230 -3558 -481 -438 -808
-749 -1353 -1291 -845 -838 -1543 -1586 -2240 -2400 -285 -333 -311 -379 -312
-556 0 -135 47 -248 144 -345 51 -50 89 -75 226 -145 497 -253 921 -640 1255
-1147 98 -149 149 -200 248 -248 96 -46 187 -61 285 -46 127 20 191 58 419
255 2756 2373 5405 5337 6631 7418 446 757 677 1401 608 1693 -39 165 -159
302 -314 359 -74 27 -253 33 -367 11z"/>
<path d="M7910 2735 l0 -2735 2735 0 2735 0 0 2735 0 2735 -2735 0 -2735 0 0
-2735z m5378 1768 l2 -863 -870 0 -870 0 0 -1775 0 -1775 -905 0 -905 0 0 870
0 870 -865 0 -865 0 0 905 0 905 865 0 865 0 0 865 0 865 1773 -2 1772 -3 3
-862z"/>
<path d="M2360 4679 c-748 -84 -1434 -584 -1869 -1361 -252 -450 -408 -980
-473 -1598 -17 -168 -17 -790 0 -970 33 -330 51 -408 122 -509 111 -159 315
-240 502 -200 72 16 138 46 231 107 42 28 123 73 180 100 266 129 526 197
1097 287 656 103 1035 200 1420 365 740 315 1207 819 1305 1409 23 135 16 393
-14 522 -67 292 -214 582 -441 869 -116 148 -401 428 -540 532 -345 258 -703
404 -1095 448 -105 11 -317 11 -425 -1z"/>
</g>
</svg>
