<?xml version="1.0" standalone="no"?>
<!DOCTYPE svg PUBLIC "-//W3C//DTD SVG 20010904//EN"
 "http://www.w3.org/TR/2001/REC-SVG-20010904/DTD/svg10.dtd">
<svg version="1.0" xmlns="http://www.w3.org/2000/svg"
 width="1338.000000pt" height="1338.000000pt" viewBox="0 0 1338.000000 1338.000000"
 preserveAspectRatio="xMidYMid meet">

<g transform="translate(0.000000,1338.000000) scale(0.100000,-0.100000)"
fill="#000000" stroke="none">
<path d="M12665 13354 c-1020 -188 -3012 -1544 -5230 -3558 -481 -438 -808
-749 -1353 -1291 -845 -838 -1543 -1586 -2240 -2400 -285 -333 -311 -379 -312
-556 0 -135 47 -248 144 -345 51 -50 89 -75 226 -145 497 -253 921 -640 1255
-1147 98 -149 149 -200 248 -248 96 -46 187 -61 285 -46 127 20 191 58 419
255 2756 2373 5405 5337 6631 7418 446 757 677 1401 608 1693 -39 165 -159
302 -314 359 -74 27 -253 33 -367 11z"/>
<path d="M2360 4679 c-748 -84 -1434 -584 -1869 -1361 -252 -450 -408 -980
-473 -1598 -17 -168 -17 -790 0 -970 33 -330 51 -408 122 -509 111 -159 315
-240 502 -200 72 16 138 46 231 107 42 28 123 73 180 100 266 129 526 197
1097 287 656 103 1035 200 1420 365 740 315 1207 819 1305 1409 23 135 16 393
-14 522 -67 292 -214 582 -441 869 -116 148 -401 428 -540 532 -345 258 -703
404 -1095 448 -105 11 -317 11 -425 -1z"/>
<path d="M6554 3395 c-4 -8 -12 -15 -20 -15 -23 0 -82 -67 -89 -101 -4 -17
-13 -33 -21 -36 -16 -6 -20 -123 -4 -123 5 0 16 -15 24 -32 18 -42 51 -78 100
-112 33 -22 49 -26 113 -26 40 0 83 6 96 13 59 33 98 72 121 122 48 100 27
185 -68 273 l-57 52 -95 0 c-75 0 -96 -3 -100 -15z"/>
<path d="M7595 2933 c-11 -3 -24 -9 -29 -14 -6 -5 -18 -9 -27 -9 -9 0 -41 -27
-71 -59 -61 -65 -74 -109 -62 -204 6 -41 15 -58 59 -105 36 -39 66 -61 94 -69
49 -15 137 -17 146 -3 3 6 14 10 23 10 23 0 118 97 131 133 12 31 13 128 3
165 -9 30 -109 132 -131 132 -9 0 -21 4 -26 9 -12 12 -83 21 -110 14z"/>
<path d="M10775 2924 c-27 -7 -59 -18 -70 -23 -11 -5 -31 -13 -45 -17 -14 -3
-39 -17 -57 -30 -17 -13 -36 -24 -42 -24 -15 0 -150 -137 -162 -164 -5 -11
-13 -28 -18 -36 -5 -8 -21 -39 -35 -68 l-26 -54 0 -746 c0 -411 -4 -753 -8
-759 -6 -9 -71 -13 -247 -15 l-240 -3 -3 -492 -2 -493 232 0 233 0 0 251 c0
138 3 255 7 262 4 7 84 11 245 11 l238 1 5 355 5 355 30 3 c47 4 135 31 195
60 58 29 163 124 180 163 5 13 14 31 19 39 40 70 41 78 41 228 0 121 -3 152
-15 162 -8 7 -15 20 -15 30 0 10 -7 23 -15 30 -8 7 -15 19 -15 27 0 22 -98
121 -155 158 -66 42 -107 56 -185 64 l-65 6 -3 85 -3 86 37 37 37 37 656 0
c613 -1 657 -2 677 -18 12 -10 25 -28 28 -40 4 -12 12 -22 17 -22 5 0 10 -364
11 -922 l3 -923 242 -3 243 -2 2 -258 3 -257 233 -3 232 -2 0 495 0 495 -230
0 c-216 0 -230 1 -240 19 -6 13 -10 252 -10 707 0 459 -4 700 -11 728 -26 101
-33 122 -46 137 -7 8 -13 23 -13 31 0 9 -7 21 -15 28 -8 7 -15 18 -15 25 0 17
-131 152 -161 165 -13 5 -33 15 -44 22 -41 23 -50 28 -65 34 -8 3 -22 9 -32
14 -9 5 -43 16 -76 24 -52 14 -155 16 -738 15 -536 -1 -690 -4 -729 -15z"/>
<path d="M6592 2443 c-40 -5 -152 -111 -152 -143 0 -11 -7 -23 -15 -26 -11 -5
-15 -22 -15 -65 0 -46 3 -59 15 -59 8 0 15 -9 15 -20 0 -27 81 -113 125 -134
35 -17 109 -21 166 -9 41 8 149 111 149 142 0 11 5 23 10 26 16 10 11 90 -9
137 -23 53 -61 100 -105 127 -34 22 -122 33 -184 24z"/>
<path d="M8474 2413 c-23 -15 -56 -48 -73 -74 -28 -43 -31 -56 -31 -122 0 -89
21 -139 81 -191 47 -40 97 -52 190 -43 66 6 108 31 156 94 24 31 29 47 32 117
4 87 -8 123 -58 179 -45 50 -91 67 -178 66 -66 0 -84 -5 -119 -26z"/>
<path d="M7560 1953 c-66 -13 -144 -106 -153 -180 -13 -109 26 -190 122 -253
80 -54 205 -35 277 42 52 56 67 101 62 185 -4 63 -9 79 -35 110 -61 76 -93 94
-174 98 -41 2 -85 1 -99 -2z"/>
<path d="M9452 1930 c-51 -28 -68 -47 -96 -104 -30 -61 -35 -140 -11 -172 8
-10 15 -26 15 -34 0 -9 17 -33 38 -53 109 -107 248 -104 350 7 32 35 40 52 46
98 4 30 4 79 0 108 -6 47 -13 59 -65 111 l-59 59 -92 -1 c-71 0 -101 -5 -126
-19z"/>
<path d="M6582 1461 c-62 -25 -107 -64 -128 -110 -11 -22 -25 -41 -31 -41 -16
0 -18 -140 -3 -140 5 0 16 -15 24 -32 37 -83 123 -138 215 -138 68 0 111 18
164 69 78 74 97 171 51 267 -39 82 -130 143 -214 143 -19 0 -54 -8 -78 -18z"/>
<path d="M8514 1459 c-23 -10 -65 -44 -93 -75 l-51 -56 0 -87 c0 -81 2 -91 28
-127 32 -44 93 -94 116 -94 8 0 18 -4 21 -10 9 -14 93 -12 139 4 43 15 107 71
137 120 14 23 19 50 19 107 0 68 -3 80 -29 115 -85 116 -184 151 -287 103z"/>
<path d="M7538 972 c-85 -41 -133 -118 -133 -217 0 -143 92 -231 241 -229 49
1 79 6 100 19 87 54 124 119 124 215 0 67 -15 103 -65 158 -62 69 -184 93
-267 54z"/>
<path d="M6591 493 c-59 -12 -138 -83 -147 -131 -4 -18 -13 -36 -20 -39 -20
-8 -19 -119 1 -127 8 -3 15 -12 15 -21 0 -21 89 -115 109 -115 9 0 25 -7 35
-15 26 -20 126 -20 152 0 10 8 26 15 35 15 24 0 87 74 110 127 32 74 21 144
-34 216 -50 66 -86 86 -163 91 -38 2 -80 2 -93 -1z"/>
</g>
</svg>
