<?xml version="1.0" standalone="no"?>
<!DOCTYPE svg PUBLIC "-//W3C//DTD SVG 20010904//EN"
 "http://www.w3.org/TR/2001/REC-SVG-20010904/DTD/svg10.dtd">
<svg version="1.0" xmlns="http://www.w3.org/2000/svg"
 width="1338.000000pt" height="1338.000000pt" viewBox="0 0 1338.000000 1338.000000"
 preserveAspectRatio="xMidYMid meet">

<g transform="translate(0.000000,1338.000000) scale(0.100000,-0.100000)"
fill="#000000" stroke="none">
<path d="M12665 13354 c-1020 -188 -3012 -1544 -5230 -3558 -481 -438 -808
-749 -1353 -1291 -845 -838 -1543 -1586 -2240 -2400 -285 -333 -311 -379 -312
-556 0 -135 47 -248 144 -345 51 -50 89 -75 226 -145 497 -253 921 -640 1255
-1147 98 -149 149 -200 248 -248 96 -46 187 -61 285 -46 127 20 191 58 419
255 2756 2373 5405 5337 6631 7418 446 757 677 1401 608 1693 -39 165 -159
302 -314 359 -74 27 -253 33 -367 11z"/>
<path d="M12050 7565 c-275 -35 -541 -110 -738 -209 -280 -140 -487 -296 -957
-721 -177 -160 -267 -244 -662 -621 -238 -227 -538 -500 -908 -829 -348 -308
-461 -415 -964 -904 -229 -223 -546 -527 -706 -676 -351 -330 -623 -605 -769
-780 -407 -488 -548 -907 -550 -1630 -1 -241 2 -284 23 -400 37 -208 102 -389
187 -523 19 -29 34 -64 34 -79 0 -29 82 -113 135 -139 17 -7 44 -23 60 -33 29
-19 63 -20 1274 -20 l1244 -1 66 37 c253 140 442 306 804 707 264 293 820 942
1122 1311 104 127 313 374 465 550 495 574 702 816 895 1045 104 124 280 331
390 461 464 544 669 823 813 1107 l72 144 0 845 0 844 -45 75 c-25 40 -45 76
-45 78 0 9 -44 70 -74 104 -21 23 -38 32 -60 32 -17 0 -44 9 -61 21 -60 40
-209 111 -296 139 -215 71 -504 96 -749 65z"/>
<path d="M2360 4679 c-748 -84 -1434 -584 -1869 -1361 -252 -450 -408 -980
-473 -1598 -17 -168 -17 -790 0 -970 33 -330 51 -408 122 -509 111 -159 315
-240 502 -200 72 16 138 46 231 107 42 28 123 73 180 100 266 129 526 197
1097 287 656 103 1035 200 1420 365 740 315 1207 819 1305 1409 23 135 16 393
-14 522 -67 292 -214 582 -441 869 -116 148 -401 428 -540 532 -345 258 -703
404 -1095 448 -105 11 -317 11 -425 -1z"/>
</g>
</svg>
