<?xml version="1.0" encoding="iso-8859-1"?>
<!-- Generator: Adobe Illustrator 16.0.0, SVG Export Plug-In . SVG Version: 6.00 Build 0)  -->
<!DOCTYPE svg PUBLIC "-//W3C//DTD SVG 1.1//EN" "http://www.w3.org/Graphics/SVG/1.1/DTD/svg11.dtd">
<svg version="1.1" id="Capa_1" xmlns="http://www.w3.org/2000/svg" xmlns:xlink="http://www.w3.org/1999/xlink" x="0px" y="0px"
	 width="320.438px" height="320.438px" viewBox="0 0 320.438 320.438" style="enable-background:new 0 0 320.438 320.438;"
	 xml:space="preserve">
<g>
	<g>
		<g>
			<path d="M316.932,3.661c-2.267-2.25-5.347-3.497-8.534-3.44c-17.458,0.266-48.819,20.975-65.958,33.297
				c-30.188,21.7-65.424,52.261-99.214,86.051c-19.867,19.867-39.16,40.818-55.793,60.589c-2.386,2.838-3.308,6.628-2.492,10.245
				s3.278,6.646,6.652,8.184c7.492,3.413,14.473,8.324,20.745,14.599c5,5,9.148,10.186,12.332,15.412
				c1.801,2.963,4.811,4.987,8.234,5.543c0.631,0.104,1.266,0.152,1.896,0.152c2.786,0,5.506-0.982,7.666-2.812
				c19.135-16.207,39.391-34.916,58.573-54.099c36.093-36.091,68.055-73.306,90.001-104.79
				c18.867-27.069,29.308-48.527,29.398-60.422C320.461,8.977,319.197,5.91,316.932,3.661z"/>
			<path d="M61.845,208.516c-16.45,0-32.457,8.583-43.92,23.55C3.058,251.478-2.849,279.133,1.287,309.937
				c0.547,4.074,3.166,7.574,6.918,9.25c1.546,0.692,3.193,1.032,4.836,1.032c2.34,0,4.669-0.693,6.667-2.051
				c9.625-6.541,20.455-8.251,31.922-10.063c10.899-1.722,23.252-3.673,36.807-9.969c15.751-7.316,26.109-18.994,28.418-32.035
				c2.332-13.165-3.504-27.19-16.875-40.562C88.842,214.402,75.656,208.516,61.845,208.516z"/>
		</g>
	</g>
</g>
<g>
</g>
<g>
</g>
<g>
</g>
<g>
</g>
<g>
</g>
<g>
</g>
<g>
</g>
<g>
</g>
<g>
</g>
<g>
</g>
<g>
</g>
<g>
</g>
<g>
</g>
<g>
</g>
<g>
</g>
</svg>
