<?xml version="1.0" encoding="iso-8859-1"?>
<!-- Generator: Adobe Illustrator 16.0.0, SVG Export Plug-In . SVG Version: 6.00 Build 0)  -->
<!DOCTYPE svg PUBLIC "-//W3C//DTD SVG 1.1//EN" "http://www.w3.org/Graphics/SVG/1.1/DTD/svg11.dtd">
<svg version="1.1" id="Capa_1" xmlns="http://www.w3.org/2000/svg" xmlns:xlink="http://www.w3.org/1999/xlink" x="0px" y="0px"
	 width="309.998px" height="309.998px" viewBox="0 0 309.998 309.998" style="enable-background:new 0 0 309.998 309.998;"
	 xml:space="preserve">
<g>
	<path d="M272.076,13.646C247.62,6.019,215.104,1.817,180.518,1.817c-34.587,0-67.104,4.201-91.56,11.829
		c-24.102,7.517-37.924,17.925-37.924,28.556c0,0.261,0.01,0.521,0.027,0.785l0.004,11.948c-5.816,6.089-17.147,18.396-27.67,32.397
		c-21.773,28.971-28.26,49.522-19.831,62.828c2.763,4.366,8.284,9.924,18.901,11.615c2.135,0.339,4.444,0.509,6.862,0.509
		c27.299,0,83.9-29.004,134.584-68.968c0.689-0.543,1.149-1.326,1.289-2.193c1.196-7.447,7.781-13.063,15.315-13.063
		c8.562,0,15.526,6.965,15.526,15.527s-6.966,15.527-15.526,15.527c-1.617,0-3.217-0.252-4.749-0.751
		c-1.11-0.36-2.33-0.143-3.246,0.579c-40.618,31.979-85.12,57.682-119.042,68.751c-1.439,0.47-2.414,1.813-2.414,3.327v106.766
		c0,1.524,0.986,2.873,2.438,3.336c12.571,4.002,58.883,17.059,127.014,17.059c68.124,0,114.439-13.057,127.013-17.059
		c1.452-0.463,2.438-1.812,2.438-3.336V43.051l0.001-0.024c0.019-0.278,0.031-0.55,0.031-0.825
		C310.001,31.573,296.178,21.165,272.076,13.646z M51.066,140.39c-10.887,3.635-19.698,5-25.837,4.026
		c-5.004-0.796-6.32-2.875-6.815-3.658c-2.773-4.382,0.521-18.203,18.937-42.735c4.02-5.362,8.633-11.059,13.716-16.934
		L51.066,140.39L51.066,140.39z M180.519,28.792c26.377,0,52.173,2.708,72.638,7.624c7.119,1.708,13.481,3.655,18.915,5.787
		c-5.432,2.132-11.795,4.079-18.917,5.787c-20.457,4.916-46.253,7.624-72.636,7.624c-26.382,0-52.18-2.708-72.643-7.624
		c-7.123-1.708-13.484-3.655-18.911-5.787c5.432-2.132,11.795-4.079,18.913-5.787C128.345,31.5,154.142,28.792,180.519,28.792z"/>
</g>
<g>
</g>
<g>
</g>
<g>
</g>
<g>
</g>
<g>
</g>
<g>
</g>
<g>
</g>
<g>
</g>
<g>
</g>
<g>
</g>
<g>
</g>
<g>
</g>
<g>
</g>
<g>
</g>
<g>
</g>
</svg>
