<?xml version="1.0" encoding="iso-8859-1"?>
<!-- Generator: Adobe Illustrator 16.0.0, SVG Export Plug-In . SVG Version: 6.00 Build 0)  -->
<!DOCTYPE svg PUBLIC "-//W3C//DTD SVG 1.1//EN" "http://www.w3.org/Graphics/SVG/1.1/DTD/svg11.dtd">
<svg version="1.1" id="Capa_1" xmlns="http://www.w3.org/2000/svg" xmlns:xlink="http://www.w3.org/1999/xlink" x="0px" y="0px"
	 width="362.777px" height="362.777px" viewBox="0 0 362.777 362.777" style="enable-background:new 0 0 362.777 362.777;"
	 xml:space="preserve">
<g>
	<g>
		<path d="M197.58,79.849c-0.162-3.949-2.637-7.432-6.313-8.887L13.679,0.702C9.97-0.766,5.747,0.111,2.929,2.93
			s-3.694,7.043-2.228,10.75L70.96,191.27c1.454,3.677,4.938,6.149,8.887,6.313c0.139,0.006,0.276,0.009,0.414,0.009
			c3.791,0,7.271-2.149,8.962-5.568l34.01-68.79l68.787-34.006C195.564,87.474,197.743,83.799,197.58,79.849z"/>
		<path d="M358.433,244.039L324.105,220.5c-3.062-2.101-7.032-2.331-10.315-0.602s-5.339,5.137-5.339,8.849v7.49h-40.115v-40.114
			h7.491c0.008,0.001,0.014,0.001,0.02,0c5.523,0,10-4.478,10-10c0-2.31-0.781-4.435-2.096-6.126l-23.218-33.857
			c-1.863-2.719-4.949-4.345-8.246-4.345c-3.298,0-6.384,1.626-8.247,4.345l-23.54,34.328c-2.101,3.061-2.33,7.032-0.602,10.316
			c1.73,3.282,5.137,5.339,8.849,5.339h7.49v40.114h-40.113v-7.491c0-3.711-2.057-7.117-5.339-8.849
			c-3.284-1.729-7.256-1.498-10.316,0.602l-34.328,23.54c-2.72,1.865-4.345,4.95-4.345,8.247c0,3.298,1.625,6.383,4.345,8.247
			l34.328,23.54c3.062,2.099,7.031,2.33,10.316,0.601c3.282-1.729,5.339-5.136,5.339-8.848v-7.491h40.113v40.115h-7.49
			c-3.712,0-7.117,2.056-8.849,5.34c-1.729,3.283-1.498,7.255,0.602,10.314l23.54,34.328c1.863,2.719,4.949,4.345,8.247,4.345
			c3.297,0,6.383-1.626,8.246-4.345l23.54-34.328c2.1-3.061,2.33-7.031,0.602-10.314c-1.73-3.284-5.136-5.34-8.848-5.34h-7.491
			v-40.115h40.115v7.491c0,3.711,2.056,7.117,5.339,8.848c3.282,1.729,7.255,1.498,10.315-0.601l34.327-23.54
			c2.72-1.864,4.345-4.949,4.345-8.247C362.777,248.99,361.152,245.905,358.433,244.039z"/>
	</g>
</g>
<g>
</g>
<g>
</g>
<g>
</g>
<g>
</g>
<g>
</g>
<g>
</g>
<g>
</g>
<g>
</g>
<g>
</g>
<g>
</g>
<g>
</g>
<g>
</g>
<g>
</g>
<g>
</g>
<g>
</g>
</svg>
