<?xml version="1.0" encoding="iso-8859-1"?>
<!-- Generator: Adobe Illustrator 16.0.0, SVG Export Plug-In . SVG Version: 6.00 Build 0)  -->
<!DOCTYPE svg PUBLIC "-//W3C//DTD SVG 1.1//EN" "http://www.w3.org/Graphics/SVG/1.1/DTD/svg11.dtd">
<svg version="1.1" id="Capa_1" xmlns="http://www.w3.org/2000/svg" xmlns:xlink="http://www.w3.org/1999/xlink" x="0px" y="0px"
	 width="340.333px" height="340.333px" viewBox="0 0 340.333 340.333" style="enable-background:new 0 0 340.333 340.333;"
	 xml:space="preserve">
<g>
	<path d="M340.278,60.321c0-16.126-6.268-31.274-17.646-42.653C311.238,6.274,296.09,0,279.979,0
		c-16.112,0-31.261,6.274-42.655,17.668l-48.137,48.138c-3.065-0.808-6.223-1.216-9.422-1.216c-9.857,0-19.126,3.838-26.099,10.81
		c-10.353,10.353-13.534,25.7-8.419,39.177L23.325,236.499c-2.952,2.952-4.54,7.001-4.382,11.173l1.36,36.012L2.277,312.999
		c-3.638,5.915-2.739,13.554,2.171,18.463l4.476,4.478c2.894,2.894,6.734,4.394,10.611,4.394c2.713,0,5.444-0.734,7.88-2.239
		l29.358-18.142l35.828,1.405c4.182,0.168,8.236-1.426,11.194-4.382l121.93-121.93c4.163,1.57,8.623,2.39,13.083,2.39
		c9.856,0,19.123-3.838,26.093-10.808c9.29-9.29,12.889-22.93,9.59-35.515l48.138-48.14
		C334.011,91.594,340.278,76.446,340.278,60.321z M83.506,281.634l-23.951-0.938l-0.903-23.893l112.106-112.105l24.843,24.843
		L83.506,281.634z"/>
</g>
<g>
</g>
<g>
</g>
<g>
</g>
<g>
</g>
<g>
</g>
<g>
</g>
<g>
</g>
<g>
</g>
<g>
</g>
<g>
</g>
<g>
</g>
<g>
</g>
<g>
</g>
<g>
</g>
<g>
</g>
</svg>
