<?xml version="1.0" encoding="iso-8859-1"?>
<!-- Generator: Adobe Illustrator 16.0.0, SVG Export Plug-In . SVG Version: 6.00 Build 0)  -->
<!DOCTYPE svg PUBLIC "-//W3C//DTD SVG 1.1//EN" "http://www.w3.org/Graphics/SVG/1.1/DTD/svg11.dtd">
<svg version="1.1" id="Capa_1" xmlns="http://www.w3.org/2000/svg" xmlns:xlink="http://www.w3.org/1999/xlink" x="0px" y="0px"
	 width="400px" height="400px" viewBox="0 0 400 400" style="enable-background:new 0 0 400 400;" xml:space="preserve">
<g>
	<path d="M390,0H10C4.479,0,0,4.477,0,10v380c0,5.523,4.479,10,10,10h380c5.522,0,10-4.477,10-10V10C400,4.478,395.522,0,390,0z
		 M125.971,360H40v-85.971h85.971V360L125.971,360z M125.971,244.029H40v-88.06h85.971V244.029L125.971,244.029z M125.971,125.971
		H40V40h85.971V125.971L125.971,125.971z M244.029,360H155.97v-85.971h88.059V360z M244.029,244.029H155.97v-88.06h88.059V244.029z
		 M244.029,125.971H155.97V40h88.059V125.971z M360,360h-85.971v-85.971H360V360z M360,244.029h-85.971v-88.06H360V244.029z
		 M360,125.971h-85.971V40H360V125.971z"/>
</g>
<g>
</g>
<g>
</g>
<g>
</g>
<g>
</g>
<g>
</g>
<g>
</g>
<g>
</g>
<g>
</g>
<g>
</g>
<g>
</g>
<g>
</g>
<g>
</g>
<g>
</g>
<g>
</g>
<g>
</g>
</svg>
